<?xml version="1.0" encoding="UTF-8" standalone="no"?>
<!-- Generator: Adobe Illustrator 16.0.3, SVG Export Plug-In . SVG Version: 6.00 Build 0)  -->

<svg
   xmlns:dc="http://purl.org/dc/elements/1.1/"
   xmlns:cc="http://creativecommons.org/ns#"
   xmlns:rdf="http://www.w3.org/1999/02/22-rdf-syntax-ns#"
   xmlns:svg="http://www.w3.org/2000/svg"
   xmlns="http://www.w3.org/2000/svg"
   xmlns:sodipodi="http://sodipodi.sourceforge.net/DTD/sodipodi-0.dtd"
   xmlns:inkscape="http://www.inkscape.org/namespaces/inkscape"
   version="1.1"
   id="Layer_1"
   x="0px"
   y="0px"
   width="792px"
   height="612px"
   viewBox="0 0 792 612"
   enable-background="new 0 0 792 612"
   xml:space="preserve"
   sodipodi:docname="Piano corto.svg"
   inkscape:version="0.92.2 2405546, 2018-03-11"><metadata
   id="metadata129"><rdf:RDF><cc:Work
       rdf:about=""><dc:format>image/svg+xml</dc:format><dc:type
         rdf:resource="http://purl.org/dc/dcmitype/StillImage" /></cc:Work></rdf:RDF></metadata><defs
   id="defs127" /><sodipodi:namedview
   pagecolor="#ffffff"
   bordercolor="#666666"
   borderopacity="1"
   objecttolerance="10"
   gridtolerance="10"
   guidetolerance="10"
   inkscape:pageopacity="0"
   inkscape:pageshadow="2"
   inkscape:window-width="1920"
   inkscape:window-height="1025"
   id="namedview125"
   showgrid="true"
   inkscape:zoom="1.4949495"
   inkscape:cx="440.76803"
   inkscape:cy="279.3515"
   inkscape:window-x="0"
   inkscape:window-y="27"
   inkscape:window-maximized="1"
   inkscape:current-layer="g106" />
<g
   id="g66">
	<path
   d="m 197.302,125.455 c -1.992,12.266 -1.634,25.168 -2.028,37.812 -0.577,18.518 -0.825,37.063 -1.151,55.599 -28.188,0.852 -56.384,1.602 -84.56,3.013 -7.001,0.346 -19.295,3.569 -22.636,-9.623 -2.674,-10.557 -0.919,-26.375 -1.11,-37.477 -0.282,-16.57 -0.324,-33.26 -1.662,-49.743 37.497,3.067 75.747,0.937 113.147,0.419 z"
   id="path2"
   inkscape:connector-curvature="0"
   style="fill:#ffffff" />
	<path
   d="m 137.261,331.914 c -0.135,18.626 -0.268,37.253 -0.403,55.88 -0.155,21.158 -3.24,47.853 0.097,70.008 -29.202,-0.121 -58.359,1.075 -86.754,6.556 4.179,-55.258 2.052,-111.576 1.907,-167.063 -0.01,-3.533 0.011,-7.088 0.015,-10.632 28.322,5.087 57.366,5.918 86.397,5.629 -2.167,12.801 -1.161,26.326 -1.259,39.622 z"
   id="path4"
   inkscape:connector-curvature="0"
   style="fill:#ffffff" />
	<path
   d="m 209.53,459.09 c 4.608,-20.371 3.126,-46.3 2.474,-68.973 0.841,0.081 1.657,0.152 2.607,0.248 2.563,0.254 4.951,-3.158 4.849,-6.53 -0.902,-30.214 0.29,-62.894 -3.771,-92.813 3.218,0.012 6.433,0 9.649,0.016 0.182,2.322 0.366,4.645 0.576,6.961 -2.019,9.172 -0.859,19.297 -0.76,29.184 0.188,18.922 0.64,37.848 0.963,56.766 0.061,3.462 2.229,6.98 4.993,6.721 0.749,-0.071 1.449,-0.136 2.134,-0.198 -1.381,22.594 -3.595,47.923 0.37,68.654 -3.663,0.017 -7.327,0.017 -10.995,0.036 -4.343,0.02 -8.717,-0.033 -13.089,-0.072 z"
   id="path6"
   inkscape:connector-curvature="0"
   style="fill:#ffffff" />
	<path
   d="m 354.152,291.17 c 0.18,2.28 0.359,4.558 0.564,6.829 -2.018,9.172 -0.858,19.297 -0.76,29.184 0.192,18.922 0.641,37.848 0.964,56.766 0.059,3.462 2.231,6.98 4.996,6.721 0.747,-0.071 1.445,-0.136 2.131,-0.198 -1.375,22.486 -3.578,47.696 0.315,68.37 -7.993,0.005 -15.981,0.017 -23.972,0.026 4.542,-20.341 3.069,-46.158 2.42,-68.75 0.841,0.081 1.658,0.152 2.603,0.248 2.563,0.254 4.951,-3.158 4.853,-6.53 -0.902,-30.161 0.282,-62.787 -3.753,-92.659 3.211,-0.007 6.428,-0.001 9.639,-0.007 z"
   id="path8"
   inkscape:connector-curvature="0"
   style="fill:#ffffff" />
	<path
   d="m 321.953,291.176 c 0.178,2.274 0.359,4.557 0.563,6.823 -2.019,9.172 -0.86,19.297 -0.758,29.184 0.189,18.922 0.638,37.848 0.965,56.766 0.056,3.462 2.229,6.98 4.992,6.721 0.745,-0.071 1.445,-0.136 2.129,-0.198 -1.372,22.502 -3.576,47.72 0.324,68.4 -7.996,0.006 -15.993,0.026 -23.989,0.036 4.556,-20.341 3.079,-46.188 2.432,-68.79 0.839,0.081 1.655,0.152 2.602,0.248 2.568,0.254 4.955,-3.158 4.853,-6.53 -0.903,-30.161 0.282,-62.783 -3.755,-92.654 3.216,-0.001 6.427,-0.006 9.642,-0.006 z"
   id="path10"
   inkscape:connector-curvature="0"
   style="fill:#ffffff" />
	<path
   d="m 257.542,291.094 c 0.181,2.307 0.364,4.61 0.568,6.905 -2.017,9.172 -0.854,19.297 -0.756,29.184 0.188,18.922 0.64,37.848 0.963,56.766 0.06,3.462 2.229,6.98 4.993,6.721 0.75,-0.071 1.449,-0.136 2.131,-0.198 -1.378,22.554 -3.584,47.848 0.354,68.56 -8.02,0.02 -16.042,0.04 -24.063,0.069 4.604,-20.371 3.126,-46.31 2.474,-68.982 0.84,0.081 1.657,0.152 2.606,0.248 2.563,0.254 4.951,-3.158 4.849,-6.53 -0.904,-30.196 0.285,-62.854 -3.764,-92.751 3.215,-0.002 6.43,0.008 9.645,0.008 z"
   id="path12"
   inkscape:connector-curvature="0"
   style="fill:#ffffff" />
	<path
   d="m 370.597,458.836 c 4.534,-20.331 3.066,-46.143 2.418,-68.719 0.835,0.081 1.654,0.152 2.602,0.248 2.563,0.254 4.95,-3.158 4.848,-6.53 -0.902,-30.166 0.287,-62.792 -3.752,-92.67 3.215,0 6.427,0 9.643,0 0.176,2.276 0.357,4.558 0.564,6.834 -2.019,9.172 -0.858,19.297 -0.761,29.184 0.188,18.922 0.641,37.848 0.964,56.766 0.059,3.462 2.228,6.98 4.992,6.721 0.751,-0.071 1.45,-0.136 2.135,-0.198 -1.374,22.477 -3.572,47.67 0.309,68.339 -7.987,0.01 -15.973,0.015 -23.962,0.025 z"
   id="path14"
   inkscape:connector-curvature="0"
   style="fill:#ffffff" />
	<path
   d="m 450.757,291.195 c 0.182,2.267 0.36,4.537 0.566,6.804 -2.02,9.172 -0.859,19.297 -0.764,29.184 0.188,18.922 0.642,37.848 0.965,56.766 0.06,3.462 2.23,6.98 4.993,6.721 0.754,-0.071 1.453,-0.136 2.132,-0.198 -1.372,22.435 -3.563,47.577 0.293,68.228 -7.975,0.017 -15.948,0.026 -23.924,0.048 4.512,-20.321 3.043,-46.089 2.396,-68.629 0.843,0.081 1.656,0.152 2.604,0.248 2.567,0.254 4.954,-3.158 4.85,-6.53 -0.904,-30.161 0.286,-62.771 -3.749,-92.649 3.215,0.001 6.43,0.001 9.638,0.007 z"
   id="path16"
   inkscape:connector-curvature="0"
   style="fill:#ffffff" />
	<path
   d="m 418.558,291.176 c 0.175,2.274 0.354,4.557 0.559,6.823 -2.02,9.172 -0.853,19.297 -0.753,29.184 0.188,18.922 0.639,37.848 0.963,56.766 0.06,3.462 2.229,6.98 4.994,6.721 0.745,-0.071 1.444,-0.136 2.131,-0.198 -1.372,22.456 -3.571,47.629 0.3,68.285 -7.982,0.014 -15.962,0.03 -23.942,0.04 4.521,-20.321 3.054,-46.117 2.404,-68.679 0.84,0.081 1.658,0.152 2.608,0.248 2.559,0.254 4.946,-3.158 4.85,-6.53 -0.904,-30.166 0.278,-62.787 -3.759,-92.665 3.214,0.005 6.43,0.005 9.645,0.005 z"
   id="path18"
   inkscape:connector-curvature="0"
   style="fill:#ffffff" />
	<path
   d="m 467.24,458.685 c 4.488,-20.312 3.026,-46.047 2.379,-68.567 0.835,0.081 1.657,0.152 2.605,0.248 2.561,0.254 4.946,-3.158 4.85,-6.53 -0.903,-30.15 0.278,-62.762 -3.749,-92.63 3.215,0 6.422,0 9.638,0 0.181,2.267 0.354,4.538 0.559,6.794 -2.021,9.172 -0.859,19.297 -0.754,29.184 0.188,18.922 0.632,37.848 0.964,56.766 0.06,3.462 2.229,6.98 4.992,6.721 0.745,-0.071 1.445,-0.136 2.13,-0.198 -1.37,22.415 -3.561,47.533 0.279,68.173 -7.967,0.007 -15.934,0.022 -23.893,0.039 z"
   id="path20"
   inkscape:connector-curvature="0"
   style="fill:#ffffff" />
	<path
   d="m 547.361,291.186 c 0.18,2.271 0.359,4.547 0.564,6.813 -2.019,9.172 -0.86,19.297 -0.764,29.184 0.19,18.922 0.641,37.848 0.967,56.766 0.059,3.462 2.227,6.98 4.99,6.721 0.756,-0.071 1.454,-0.136 2.14,-0.198 -1.371,22.395 -3.562,47.488 0.264,68.112 -7.952,0.005 -15.91,0.021 -23.863,0.021 4.473,-20.29 3.004,-45.996 2.364,-68.486 0.835,0.081 1.648,0.152 2.598,0.248 2.566,0.254 4.955,-3.158 4.849,-6.53 -0.894,-30.161 0.287,-62.777 -3.75,-92.649 3.216,-0.002 6.431,-0.002 9.641,-0.002 z"
   id="path22"
   inkscape:connector-curvature="0"
   style="fill:#ffffff" />
	<path
   d="m 515.16,291.195 c 0.182,2.267 0.363,4.537 0.563,6.804 -2.016,9.172 -0.856,19.297 -0.758,29.184 0.188,18.922 0.641,37.848 0.963,56.766 0.061,3.462 2.229,6.98 4.994,6.721 0.744,-0.071 1.444,-0.136 2.13,-0.198 -1.371,22.407 -3.555,47.507 0.271,68.143 -7.96,0.01 -15.919,0.01 -23.871,0.02 4.474,-20.301 3.013,-46.016 2.365,-68.516 0.843,0.081 1.657,0.152 2.604,0.248 2.562,0.254 4.948,-3.158 4.851,-6.53 -0.903,-30.156 0.277,-62.766 -3.751,-92.64 3.218,0.003 6.432,-0.002 9.639,-0.002 z"
   id="path24"
   inkscape:connector-curvature="0"
   style="fill:#ffffff" />
	<path
   d="m 563.866,458.583 c 4.463,-20.295 3.002,-45.985 2.355,-68.466 0.836,0.081 1.655,0.152 2.606,0.248 2.558,0.254 4.947,-3.158 4.85,-6.53 -0.905,-30.161 0.279,-62.787 -3.75,-92.659 3.206,-0.011 6.422,-0.011 9.639,-0.021 0.172,2.286 0.353,4.567 0.557,6.844 -2.019,9.172 -0.854,19.297 -0.754,29.184 0.188,18.922 0.639,37.848 0.964,56.766 0.061,3.462 2.229,6.98 4.991,6.721 0.747,-0.071 1.447,-0.136 2.135,-0.198 -1.372,22.381 -3.558,47.466 0.262,68.087 -3.667,0.004 -7.343,0.016 -11.008,0.011 -4.28,-0.008 -8.561,0.008 -12.847,0.013 z"
   id="path26"
   inkscape:connector-curvature="0"
   style="fill:#ffffff" />
	<path
   d="m 596.072,458.552 c 4.455,-20.29 2.994,-45.966 2.347,-68.435 0.843,0.081 1.657,0.152 2.607,0.248 2.569,0.254 4.955,-3.158 4.85,-6.53 -0.903,-30.183 0.286,-62.827 -3.76,-92.721 3.218,0 6.432,-0.009 9.641,-0.009 0.18,2.295 0.36,4.599 0.572,6.894 -2.019,9.172 -0.859,19.297 -0.762,29.184 0.189,18.922 0.64,37.848 0.963,56.766 0.062,3.462 2.23,6.98 4.996,6.721 0.752,-0.071 1.452,-0.136 2.13,-0.198 -1.363,22.376 -3.555,47.447 0.255,68.062 -7.944,0.008 -15.888,0.008 -23.839,0.018 z"
   id="path28"
   inkscape:connector-curvature="0"
   style="fill:#ffffff" />
	<path
   d="m 628.278,458.542 c 4.449,-20.29 2.987,-45.956 2.349,-68.425 0.835,0.081 1.657,0.152 2.604,0.248 2.563,0.254 4.949,-3.158 4.851,-6.53 -0.903,-30.201 0.286,-62.867 -3.773,-92.771 6.033,-0.011 12.056,-0.021 18.089,-0.03 -5.106,26.44 -0.385,61.007 -0.068,87.441 0.285,23.779 -2.951,55.27 1.609,80.086 -8.556,-0.029 -17.108,-0.019 -25.661,-0.019 z"
   id="path30"
   inkscape:connector-curvature="0"
   style="fill:#ffffff" />
	<path
   d="m 576.426,272.386 c -59.104,-0.021 -118.213,0.151 -177.324,0.232 -59.11,0.092 -118.22,0.026 -177.328,0.355 -55.78,0.314 -114.114,-5.476 -169.636,4.613 0.215,-52.256 1.422,-105.182 -2.413,-157.05 8.362,1.574 16.793,2.733 25.267,3.63 -1.773,25.746 -0.501,52.292 -0.354,78.09 0.083,14.327 2.332,24.584 11.155,32.833 10.606,9.917 32.982,3.55 44.754,3.234 23.319,-0.617 46.634,-1.328 69.95,-2.077 3.626,-0.112 6.435,-3.914 6.53,-8.787 0.354,-18.339 0.706,-36.682 1.062,-55.025 0.297,-15.338 1.599,-31.8 -0.44,-47.071 2.346,-0.01 4.694,-0.031 7.033,-0.02 59.106,0.252 118.217,0.136 177.329,0.142 59.106,0.01 118.219,0.122 177.32,0.015 30.738,-0.056 61.476,-0.106 92.215,-0.157 28.973,-0.051 59.344,2.554 88.221,-1.784 -3.096,49.736 -1.807,100.345 -1.597,150.296 -26.13,-3.58 -53.356,-1.203 -79.531,-1.44 -30.737,-0.273 -61.477,-0.02 -92.213,-0.029 z"
   id="path32"
   inkscape:connector-curvature="0"
   style="fill:#ffffff" />
	<path
   d="m 668.781,458.604 c -1.807,-0.021 -3.614,0 -5.422,-0.016 3.533,-22.313 0.375,-49.386 0.229,-70.794 -0.138,-18.627 -0.275,-37.254 -0.409,-55.88 -0.099,-13.74 1.003,-27.725 -1.469,-40.901 28.404,-0.04 58.14,2.449 86.497,-1.562 -0.09,56.748 -1.979,114.323 1.981,170.871 -26.702,-4 -54.607,-1.476 -81.407,-1.718 z"
   id="path34"
   inkscape:connector-curvature="0"
   style="fill:#ffffff" />
	<g
   id="g48">
		<path
   d="m 633.383,179.979 c -5.45,-1.572 -10.315,0.111 -14.374,5.242 -4.481,5.654 -5.071,14.587 -2.185,21.594 0.497,1.191 1.105,2.235 1.793,3.128 1.783,3.58 4.442,6.348 7.636,7.533 5.896,2.182 12.285,-1.337 15.374,-8.426 2.584,-5.932 2.378,-13.608 -0.385,-19.297 -1.339,-4.684 -3.934,-8.638 -7.859,-9.774 z"
   id="path36"
   inkscape:connector-curvature="0"
   style="fill:#f9b0a0" />
		<path
   d="m 108.411,314.989 c -6.949,-6.379 -17.4,-4.694 -23.282,3.226 -3.072,4.137 -3.869,8.76 -4.355,14.255 -0.369,4.221 0.859,7.784 2.047,11.501 2.356,7.36 8.167,10.756 13.735,11.254 1.42,0.122 2.837,-0.202 4.2,-0.811 6.255,-0.255 12.619,-5.689 13.904,-14.309 0.148,-0.993 0.295,-1.981 0.444,-2.971 1.371,-9.192 -0.95,-16.872 -6.693,-22.145 z"
   id="path38"
   inkscape:connector-curvature="0"
   style="fill:#f9b0a0" />
		<path
   d="m 581.689,187.027 c -2.479,-2.241 -4.925,-2.506 -7.72,-3.013 -3.569,-0.649 -6.542,-0.831 -9.79,1.724 -2.838,2.243 -4.969,5.954 -5.842,10.233 -0.897,4.41 -0.437,9.226 1.288,13.181 1.831,4.208 4.375,6.064 7.59,7.858 2.63,1.472 4.894,2.937 7.906,2.672 5.83,-0.511 10.934,-4.973 12.546,-12.861 1.627,-7.946 -1.099,-15.368 -5.978,-19.794 z"
   id="path40"
   inkscape:connector-curvature="0"
   style="fill:#f9b0a0" />
		<path
   d="m 748.17,273.856 c -0.21,-49.951 -1.499,-100.56 1.597,-150.296 -28.877,4.338 -59.248,1.733 -88.221,1.784 -30.739,0.05 -61.477,0.101 -92.215,0.157 -59.102,0.107 -118.214,-0.005 -177.32,-0.015 -59.112,-0.006 -118.223,0.11 -177.329,-0.142 -2.339,-0.011 -4.688,0.01 -7.033,0.02 2.039,15.271 0.737,31.733 0.44,47.071 -0.355,18.343 -0.708,36.686 -1.062,55.025 -0.095,4.873 -2.9,8.675 -6.53,8.787 -23.316,0.749 -46.631,1.46 -69.95,2.077 -11.772,0.315 -34.149,6.683 -44.754,-3.234 -8.823,-8.249 -11.072,-18.505 -11.155,-32.833 -0.147,-25.798 -1.419,-52.344 0.354,-78.09 -8.474,-0.897 -16.905,-2.057 -25.267,-3.63 3.834,51.868 2.628,104.794 2.413,157.05 55.522,-10.089 113.856,-4.299 169.636,-4.613 59.108,-0.329 118.218,-0.264 177.328,-0.349 59.111,-0.088 118.22,-0.261 177.324,-0.239 30.736,0.009 61.477,-0.244 92.213,0.03 26.174,0.237 53.401,-2.14 79.531,1.44 z m -244.003,-75.27 c -2.74,-2.687 -6.423,-3.64 -9.902,-2.738 -6.791,1.775 -13.471,3.549 -20.368,4.412 -4.411,0.552 -8.841,4.826 -8.547,11.514 0.339,7.68 0.137,15.874 1.198,23.439 0.526,3.742 1.167,7.453 1.784,11.169 0.007,0.005 0.007,0.009 0.007,0.015 -13.704,-0.09 -27.401,-0.183 -41.104,-0.28 -0.537,-0.004 -1.07,-0.004 -1.604,-0.014 0.322,-11.884 -0.017,-23.9 -0.204,-35.642 -0.136,-8.123 -4.668,-13.446 -10.436,-14.054 -11.506,-1.217 -23.957,3.56 -26.287,20.919 -0.949,7.047 -0.706,18.851 1.66,28.539 -14.009,-0.096 -28.019,-0.188 -42.024,-0.29 0.302,-8.968 0.605,-17.941 0.908,-26.915 0.304,-9.051 -5.663,-15.633 -11.917,-16.047 -4.903,-0.319 -9.778,-0.411 -14.688,-0.406 -5.885,0.011 -11.7,6.937 -11.321,15.251 0.479,10.504 0.204,20.614 5.96,27.91 -13.709,-0.095 -27.417,-0.188 -41.121,-0.278 0.376,-1.729 0.647,-3.528 0.738,-5.415 0.193,-3.869 -0.136,-7.555 -0.855,-11.044 0.765,-2.964 1.236,-5.859 1.488,-9.389 0.494,-6.93 -3.222,-14.186 -7.474,-17.542 -5.902,-4.653 -13.437,-3.214 -18.286,3.174 -0.607,0.802 -1.107,1.673 -1.616,2.536 -3.216,1.246 -6.276,3.448 -8.896,6.423 -0.107,0.122 -0.182,0.295 -0.287,0.421 -0.327,-8.031 -0.696,-16.062 -1.151,-24.098 -0.716,-12.585 -0.588,-25.904 -2.143,-38.548 16.257,4.412 34.54,-0.092 50.582,-1.5 1.568,-0.132 3.134,-0.234 4.7,-0.365 -2.545,0.648 -5.033,1.965 -7.135,3.416 -3.286,2.272 -6.464,7.048 -8.015,11.51 -4.19,12.066 -3.148,26.129 3.347,36.337 4.038,6.341 11.033,6.839 16.427,3.331 0.316,0.05 0.618,0.132 0.96,0.132 4.461,0 6.864,-4.249 7.259,-8.873 3.938,-3.084 6.927,-8.432 8.024,-14.35 1.241,-6.722 0.218,-13.069 -2.083,-19.113 -2.316,-6.089 -6.661,-9.208 -11.115,-11.687 -1.073,-0.597 -2.207,-0.907 -3.358,-1.035 20.113,-1.566 40.251,-2.468 60.395,-3.011 -0.026,0.521 -0.091,1.019 -0.072,1.577 0.033,1.003 0.063,2.059 0.099,3.103 -0.445,-0.021 -0.89,0.086 -1.237,0.355 -9.021,7.093 -8.933,20.341 -9.916,32.951 -0.362,4.608 2.149,9.176 4.882,11.462 9.854,8.265 22.188,4.684 30.251,-5.832 4.628,-6.032 6.255,-14.398 6.545,-22.764 0.217,-6.403 -0.431,-14.784 -3.005,-20.909 15.01,0.426 30.068,1.481 45.129,2.525 -4.157,11.287 -3.455,25.325 -3.968,37.59 -0.286,6.895 4.336,11.803 9.035,12.158 4.813,0.364 9.631,0.734 14.443,1.1 5.436,0.41 9.752,-6.345 9.849,-13.258 0.091,-6.303 0.045,-12.568 -0.067,-18.871 -0.113,-5.938 0.128,-11.604 -1.506,-16.965 15.15,0.791 30.265,1.177 45.286,0.497 0.376,9.481 0.894,18.501 1.031,26.253 0.105,6.126 -0.121,13.458 -0.279,21.214 z m 25.15,48.226 c 5.828,-20.897 3.796,-51.07 4.524,-69.438 0.452,-11.185 1.747,-24.823 2.29,-38.726 16.172,7.713 35.797,3.834 52.61,3.763 27.888,-0.106 55.764,-1.084 83.637,-1.846 15.332,-0.417 30.648,-0.964 45.971,-1.572 -2.949,35.937 -0.082,75.169 4.181,108.378 0.037,0.268 0.121,0.494 0.158,0.76 -31.905,-0.223 -63.81,-0.437 -95.717,-0.648 -32.549,-0.225 -65.1,-0.448 -97.654,-0.671 z"
   id="path42"
   inkscape:connector-curvature="0"
   style="fill:#f9b0a0" />
		<path
   d="m 683.247,180.476 c -3.555,1.74 -7.169,3.915 -8.887,8.818 -2.189,6.251 -2.244,14.535 1.822,19.544 2.296,4.501 6.688,7.168 10.604,7.168 4.252,0 9.456,-3.25 11.316,-8.74 0.053,-0.162 0.104,-0.32 0.165,-0.476 2.027,-5.993 2.585,-12.128 0,-18.08 -2.838,-6.516 -9.471,-10.947 -15.02,-8.234 z"
   id="path44"
   inkscape:connector-curvature="0"
   style="fill:#f9b0a0" />
		<path
   d="m 89.307,393.306 c -4.863,4.67 -7.096,10.512 -7.599,18.471 -0.476,7.493 3.06,14.622 7.675,18.308 4.429,3.539 9.358,2.591 13.007,-0.856 0.898,-0.076 1.816,-0.284 2.748,-0.63 3.365,-1.247 6.282,-4.279 8.043,-8.324 2.576,-5.917 2.152,-12.35 0,-18.297 -3.99,-11.024 -16.32,-15.916 -23.874,-8.672 z"
   id="path46"
   inkscape:connector-curvature="0"
   style="fill:#f9b0a0" />
	</g>
	<path
   d="m 761.269,296.478 c -0.144,-59.984 2.025,-121.145 -2.433,-180.875 -0.029,-0.476 -0.167,-0.837 -0.255,-1.247 -0.054,-0.253 -0.085,-0.497 -0.16,-0.739 -0.15,-0.487 -0.346,-0.894 -0.564,-1.287 -0.15,-0.291 -0.284,-0.579 -0.475,-0.843 -0.044,-0.061 -0.097,-0.097 -0.142,-0.152 -0.828,-1.086 -1.943,-1.923 -3.45,-2.181 -27.815,-4.812 -57.083,-1.967 -85.119,-2.22 -30.736,-0.274 -61.474,-0.02 -92.211,-0.035 -59.104,-0.02 -118.215,0.151 -177.323,0.238 -59.111,0.09 -118.221,0.02 -177.328,0.355 -58.563,0.329 -119.951,-6.116 -177.933,6.206 -0.538,0.111 -0.941,0.506 -1.215,1.033 -0.804,0.877 -1.39,2.236 -1.531,4.127 -4.106,55.762 -2.008,112.789 -2.007,168.771 0.005,59.209 -2.262,119.386 2.469,178.32 0.207,2.564 1.304,4.253 2.637,5.06 0.045,0.045 0.094,0.081 0.143,0.123 0.015,0.01 0.03,0.01 0.042,0.02 0.178,0.132 0.362,0.251 0.585,0.303 55.643,11.757 114.383,5.692 170.569,5.932 59.017,0.255 118.034,0.139 177.05,0.143 59.014,0.01 118.035,0.115 177.046,0.016 30.686,-0.055 61.377,-0.106 92.063,-0.158 30.253,-0.056 62.054,2.892 92.069,-2.353 2.424,-0.417 3.938,-2.24 4.608,-4.425 0.392,-0.797 0.699,-1.724 0.791,-2.937 4.376,-56.602 2.201,-114.341 2.074,-171.195 z M 197.335,125.641 c -1.991,12.267 -1.633,25.168 -2.029,37.812 -0.576,18.518 -0.822,37.064 -1.149,55.599 -28.189,0.852 -56.386,1.602 -84.561,3.012 -7,0.345 -19.293,3.569 -22.635,-9.623 -2.675,-10.556 -0.921,-26.375 -1.11,-37.477 -0.282,-16.569 -0.324,-33.26 -1.664,-49.743 37.499,3.068 75.749,0.938 113.148,0.42 z M 137.295,332.1 c -0.135,18.627 -0.27,37.255 -0.404,55.882 -0.155,21.156 -3.238,47.852 0.096,70.006 -29.201,-0.119 -58.358,1.075 -86.752,6.557 4.178,-55.257 2.052,-111.576 1.908,-167.063 -0.011,-3.535 0.011,-7.089 0.015,-10.632 28.322,5.085 57.365,5.916 86.397,5.627 -2.169,12.802 -1.164,26.33 -1.26,39.623 z m 96.89,128.895 c 2.454,0 6.136,0 8.59,0 -2.454,0 -6.136,0 -8.59,0 z M 576.46,272.571 c -59.104,-0.021 -118.215,0.152 -177.323,0.233 -59.111,0.092 -118.221,0.026 -177.328,0.354 -55.781,0.315 -114.116,-5.475 -169.639,4.615 0.216,-52.258 1.422,-105.183 -2.412,-157.052 8.362,1.574 16.794,2.733 25.267,3.631 -1.772,25.746 -0.5,52.292 -0.354,78.09 0.083,14.326 2.333,24.584 11.156,32.832 10.606,9.918 32.982,3.551 44.755,3.236 23.318,-0.618 46.633,-1.328 69.951,-2.079 3.625,-0.11 6.433,-3.914 6.529,-8.787 0.353,-18.338 0.707,-36.681 1.062,-55.023 0.297,-15.339 1.6,-31.8 -0.441,-47.071 2.346,-0.009 4.694,-0.03 7.034,-0.019 59.107,0.251 118.217,0.135 177.327,0.142 59.109,0.01 118.221,0.121 177.323,0.015 30.738,-0.057 61.475,-0.107 92.213,-0.157 28.973,-0.052 59.344,2.554 88.222,-1.785 -3.095,49.737 -1.808,100.346 -1.596,150.295 -26.133,-3.579 -53.359,-1.202 -79.533,-1.438 -30.738,-0.275 -61.476,-0.021 -92.213,-0.032 z"
   id="path50"
   inkscape:connector-curvature="0"
   style="fill:#303030" />
	<path
   d="m 92.929,307.982 c -2.022,0.699 -3.993,2.128 -5.737,3.979 -4.644,3.261 -7.889,9.031 -9.704,16.068 -2.423,9.383 0.888,19.682 5.629,26.484 5.329,7.635 13.78,9.197 20.946,6.409 15.109,-5.872 18.025,-30.359 8.934,-45.448 -4.634,-7.694 -13.305,-9.819 -20.068,-7.492 z m 5.717,23.723 c -3.188,-0.04 -6.013,5.375 -3.926,9.213 1.246,2.29 2.897,3.959 4.654,5.44 -6.116,1.661 -12.295,-5.452 -10.943,-14.268 0.375,-2.439 1.448,-4.437 2.833,-5.952 1.318,-1.102 2.664,-2.079 4.036,-2.712 2.581,-0.822 5.038,0.907 7.53,1.136 0.265,0.232 0.53,0.454 0.798,0.734 2.394,2.539 3.241,6.209 3,9.8 -2.525,-1.651 -5.207,-3.355 -7.982,-3.391 z"
   id="path52"
   inkscape:connector-curvature="0"
   style="fill:#303030" />
	<path
   d="m 92.929,383.212 c -2.022,0.693 -3.993,2.13 -5.737,3.975 -4.644,3.265 -7.889,9.03 -9.704,16.072 -2.423,9.379 0.888,19.683 5.629,26.48 5.329,7.642 13.78,9.196 20.946,6.413 15.109,-5.869 18.025,-30.358 8.934,-45.447 -4.634,-7.696 -13.305,-9.825 -20.068,-7.493 z m 8.028,37.762 c -6.573,3.518 -13.994,-4.077 -12.525,-13.659 0.375,-2.435 1.448,-4.432 2.833,-5.951 1.318,-1.096 2.664,-2.08 4.036,-2.709 0.19,-0.061 0.377,-0.03 0.564,-0.061 -2.156,4.208 -3.473,9.49 -2.755,13.964 0.489,3.051 3.313,4.339 5.21,2.859 1.762,-1.38 2.925,-3.51 4.265,-5.501 1.084,-1.607 2.337,-3.372 3.388,-5.188 1.944,5.967 -0.3,13.721 -5.016,16.246 z"
   id="path54"
   inkscape:connector-curvature="0"
   style="fill:#303030" />
	<path
   d="m 721.808,258.19 c 0.22,-0.088 0.386,-0.254 0.57,-0.376 0.046,-0.037 0.093,-0.051 0.139,-0.091 1.27,-0.933 1.912,-2.677 1.866,-4.452 4.238,-36.341 2.756,-74.356 3.878,-111.074 0.144,-4.609 -2.944,-8.397 -6.252,-8.421 -31.909,-0.228 -63.824,0.07 -95.733,0.34 -28.413,0.242 -62.463,-6.167 -89.873,4.638 -0.217,0.087 -0.382,0.249 -0.572,0.38 -0.044,0.031 -0.091,0.052 -0.134,0.081 -1.273,0.939 -1.914,2.688 -1.867,4.452 -4.24,36.347 -2.764,74.357 -3.887,111.084 -0.136,4.604 2.953,8.397 6.257,8.416 31.914,0.229 63.825,-0.07 95.736,-0.344 28.411,-0.233 62.461,6.175 89.872,-4.633 z M 542.646,246.239 c 0.791,-31.693 3.081,-64.171 1.318,-95.697 25.993,6.845 56.442,1.186 82.312,1.049 29.757,-0.157 59.53,-0.329 89.289,-0.887 -0.79,31.688 -3.08,64.173 -1.316,95.697 -25.994,-6.851 -56.445,-1.187 -82.313,-1.049 -29.766,0.162 -59.533,0.33 -89.29,0.887 z"
   id="path56"
   inkscape:connector-curvature="0"
   style="fill:#303030" />
	<path
   d="m 573.238,170.996 c -2.007,0.029 -4.088,0.687 -6.015,1.813 -0.754,0.315 -1.491,0.69 -2.189,1.117 -6.479,3.944 -10.988,11.863 -11.732,21.456 -1.575,20.281 12.01,34.284 26.202,29.701 14.262,-4.603 19.113,-29.848 10.168,-44.46 -4.068,-6.642 -10.121,-9.74 -16.434,-9.627 z m 3.096,38.612 c -6.488,2.952 -11.414,-4.097 -11.535,-12.411 -0.052,-3.55 0.897,-5.958 2.379,-7.636 4.09,-1.72 8.396,-4.127 12.207,-0.042 5.368,5.761 2.958,17.361 -3.051,20.089 z"
   id="path58"
   inkscape:connector-curvature="0"
   style="fill:#303030" />
	<path
   d="m 628.374,170.996 c -2.01,0.029 -4.088,0.687 -6.016,1.813 -0.753,0.315 -1.491,0.69 -2.192,1.117 -6.483,3.944 -10.985,11.863 -11.73,21.456 -1.573,20.281 12.01,34.284 26.204,29.701 14.261,-4.603 19.111,-29.848 10.166,-44.46 -4.067,-6.642 -10.12,-9.74 -16.432,-9.627 z m 3.098,38.612 c -6.494,2.952 -11.425,-4.097 -11.536,-12.411 -0.056,-3.55 0.896,-5.958 2.377,-7.636 4.088,-1.72 8.396,-4.127 12.206,-0.042 5.37,5.761 2.959,17.361 -3.047,20.089 z"
   id="path60"
   inkscape:connector-curvature="0"
   style="fill:#303030" />
	<path
   d="m 689.775,225.083 c 14.262,-4.603 19.104,-29.848 10.166,-44.46 -4.066,-6.641 -10.123,-9.739 -16.43,-9.626 -2.013,0.029 -4.09,0.687 -6.019,1.813 -0.754,0.315 -1.491,0.69 -2.191,1.117 -6.483,3.944 -10.985,11.863 -11.732,21.456 -1.573,20.28 12.011,34.283 26.206,29.7 z m -14.708,-27.886 c -0.052,-3.55 0.897,-5.958 2.382,-7.636 4.087,-1.72 8.396,-4.127 12.204,-0.042 5.369,5.76 2.962,17.36 -3.049,20.088 -6.49,2.953 -11.422,-4.095 -11.537,-12.41 z"
   id="path62"
   inkscape:connector-curvature="0"
   style="fill:#303030" />
	<path
   d="m 509.295,194.631 c -0.467,-15.396 0.791,-32.565 -4.947,-46.248 -0.27,-0.655 -0.708,-1.136 -1.213,-1.452 -0.314,-0.304 -0.685,-0.552 -1.121,-0.699 -20.219,-6.925 -42.755,-3.062 -63.455,-2.463 -23.141,0.669 -46.287,1.09 -69.429,1.375 -23.144,0.287 -46.288,0.48 -69.432,0.805 -11.079,0.163 -22.755,-0.802 -34.276,-0.483 -8.927,-0.258 -17.898,0.128 -26.794,0.391 -3.379,0.097 -6.285,4.077 -6.134,8.681 0.012,0.284 0.023,0.568 0.031,0.852 -2.429,16.731 -0.433,34.719 0.082,51.663 0.471,15.394 -0.79,32.561 4.952,46.245 0.275,0.653 0.712,1.129 1.213,1.448 0.319,0.311 0.685,0.553 1.117,0.705 20.223,6.926 42.758,3.059 63.456,2.459 23.139,-0.669 46.287,-1.091 69.434,-1.373 23.145,-0.284 46.285,-0.482 69.426,-0.811 11.083,-0.153 22.755,0.805 34.284,0.484 8.922,0.265 17.891,-0.12 26.793,-0.383 3.379,-0.102 6.286,-4.078 6.128,-8.682 -0.007,-0.284 -0.016,-0.572 -0.031,-0.852 2.431,-16.734 0.434,-34.717 -0.084,-51.662 z m -11.928,-37.949 c -0.947,6.443 -0.911,13.122 -0.557,19.839 -0.264,5.02 -0.444,10.09 -0.559,15.181 -9.208,-0.871 -18.463,-1.5 -27.746,-1.836 0.225,-9.694 0.149,-19.498 -1.809,-28.314 10.43,-0.383 20.844,-1.488 30.671,-4.87 z m -58.47,5.217 c 6.265,-0.171 12.726,-0.111 19.231,-0.162 -1.731,8.892 -1.461,18.423 -1.069,27.865 -8.72,-0.163 -17.446,-0.173 -26.184,-0.071 0.213,-9.371 0.1,-18.819 -1.715,-27.389 3.246,-0.085 6.49,-0.151 9.737,-0.243 z m -19.472,27.795 c -8.751,0.171 -17.489,0.405 -26.21,0.627 0.23,-9.337 0.147,-18.773 -1.559,-27.374 9.578,-0.162 19.155,-0.349 28.733,-0.587 -1.605,8.745 -1.349,18.085 -0.964,27.334 z m -49.956,-26.421 c 4.385,-0.026 8.775,-0.137 13.166,-0.194 -1.514,8.828 -1.202,18.224 -0.813,27.517 -3.912,0.092 -7.828,0.187 -11.725,0.253 -4.85,0.086 -9.695,0.212 -14.545,0.314 0.249,-9.486 0.212,-19.09 -1.472,-27.85 5.13,-0.014 10.258,-0.004 15.389,-0.04 z m -24.514,0.065 c -1.506,9.005 -1.137,18.598 -0.738,28.069 -8.776,0.202 -17.55,0.426 -26.326,0.668 0.271,-9.846 0.293,-19.863 -1.483,-28.954 9.514,0.127 19.028,0.228 28.547,0.217 z m -0.488,45.722 c -0.228,9.563 -0.781,20.201 0.397,29.752 -9.067,0.17 -18.128,0.369 -27.191,0.603 0.99,-9.688 -0.003,-20.285 -0.113,-29.686 8.968,-0.244 17.937,-0.466 26.907,-0.669 z m -44.453,-46.158 c 2.453,0.062 4.903,0.052 7.354,0.097 -1.627,9.42 -1.16,19.488 -0.749,29.391 -1.86,0.061 -3.717,0.101 -5.577,0.156 -6.641,0.203 -13.674,-0.055 -20.799,-0.151 0.278,-10.003 0.329,-20.204 -1.501,-29.432 7.215,-0.035 14.372,-0.232 21.272,-0.061 z m -41.949,-0.809 c 3.867,0.44 7.775,0.648 11.691,0.76 -1.665,9.491 -1.186,19.642 -0.776,29.62 -7.94,0.284 -15.802,1.195 -23.181,3.583 0.016,-11.23 -0.192,-22.456 -0.49,-33.458 4.254,-0.125 8.506,-0.299 12.756,-0.505 z m -12.966,63.07 c 0.251,-4.856 0.417,-9.765 0.534,-14.688 7.582,1.812 15.528,1.979 23.479,1.598 -0.262,9.309 -0.617,19.377 0.705,28.353 -8.611,0.568 -17.149,1.775 -25.281,4.572 0.954,-6.445 0.913,-13.123 0.563,-19.835 z m 57.905,14.617 c -7.485,0.209 -15.244,0.076 -23.035,0.218 1.031,-9.298 0.174,-19.49 -0.021,-28.671 4.819,-0.391 9.577,-0.786 14.192,-0.933 4.222,-0.137 8.442,-0.24 12.663,-0.361 -0.245,9.598 -0.75,20.19 0.535,29.64 -1.445,0.042 -2.888,0.072 -4.334,0.107 z m 69.434,-1.374 c -5.681,0.04 -11.361,0.168 -17.046,0.253 0.885,-9.684 -0.131,-20.229 -0.204,-29.528 0,-0.101 0.003,-0.207 0.003,-0.304 2.667,-0.061 5.333,-0.127 8.002,-0.177 6.295,-0.127 12.609,-0.177 18.93,-0.199 -0.214,9.573 -0.802,20.287 0.336,29.931 -3.341,0.014 -6.682,0.005 -10.021,0.024 z m 20.626,-0.051 c 0.835,-9.603 -0.167,-20.027 -0.238,-29.224 0,-0.222 0.006,-0.466 0.006,-0.689 8.966,0.009 17.946,0.039 26.922,0.061 -0.211,9.603 -0.798,20.331 0.355,29.983 -9.013,-0.09 -18.032,-0.151 -27.045,-0.131 z m 48.823,0.427 c -3.735,-0.098 -7.478,-0.093 -11.215,-0.153 0.884,-9.674 -0.134,-20.209 -0.21,-29.498 0,-0.203 0.01,-0.415 0.01,-0.613 8.982,-0.015 17.966,-0.126 26.935,-0.33 -0.212,9.766 -0.836,20.748 0.369,30.578 -5.378,0.066 -10.716,0.147 -15.889,0.016 z m 41.949,0.81 c -5.135,-0.587 -10.338,-0.75 -15.542,-0.81 0.904,-9.72 -0.12,-20.312 -0.188,-29.651 -0.008,-0.406 0.008,-0.831 0.008,-1.237 9.359,-0.344 18.68,-0.913 27.988,-1.694 -0.007,11.034 0.196,22.066 0.489,32.884 -4.244,0.123 -8.501,0.294 -12.755,0.508 z"
   id="path64"
   inkscape:connector-curvature="0"
   style="fill:#303030" />
</g>
<g
   id="g72"
   inkscape:label="#btn-left">
	<path
   d="m 154.936,457.524 c 7.128,-24.717 1.954,-55.853 2.407,-79.412 0.506,-26.061 7.97,-60.025 0.229,-86.317 6.923,-0.076 13.837,-0.174 20.75,-0.274 0.036,0.281 0.196,-0.506 0.232,-0.229 13.597,-1.065 21.606,-0.969 34.44,0 -0.171,-0.852 2.17,0.564 1.985,-0.284 5.229,-0.064 10.439,-0.126 15.651,-0.177 0.287,2.271 0.579,4.536 0.908,6.806 -3.284,9.172 -1.393,19.295 -1.229,29.182 0.307,18.922 1.037,37.849 1.567,56.766 0.096,3.463 3.63,6.98 8.12,6.723 1.218,-0.071 2.359,-0.139 3.474,-0.201 -2.242,22.555 1.234,42.25 0.569,68.548 z"
   id="btn-left"
   inkscape:label="#btn-left"
   inkscape:connector-curvature="0"
   style="fill:#ffffff" />
	<path
   d="m 230.28,415.489 c 0.275,-2.529 0.526,-5.061 0.829,-7.589 0.103,-0.856 -0.644,-1.553 -1.481,-1.423 -7.129,1.134 -14.277,2.028 -21.438,2.689 -3.745,0.165 -7.49,0.367 -11.236,0.594 0.104,-1.405 0.202,-2.81 0.291,-4.219 0.065,-1.051 -0.875,-1.75 -1.862,-1.365 -0.067,0.025 -0.133,0.051 -0.2,0.075 -0.095,-0.041 -0.197,-0.069 -0.302,-0.089 0.445,-0.239 0.894,-0.469 1.339,-0.716 0.932,-0.515 0.363,-1.97 -0.633,-1.52 -10.674,4.828 -21.421,9.448 -32.472,13.254 -1.195,0.413 -0.887,2.387 0.33,2.414 10.736,0.26 20.454,4.148 30.18,8.115 0.84,0.343 1.82,-0.323 1.928,-1.22 0.274,-2.276 0.51,-4.554 0.729,-6.833 10.895,0.723 21.848,0.426 32.791,-0.891 0.612,-0.073 1.14,-0.67 1.207,-1.276 z"
   id="path70"
   inkscape:connector-curvature="0"
   style="fill:#303030" />
</g>
<g
   id="g78"
   inkscape:label="#btn-up">
	<path
   d="m 261.413,458.793 c 0.917,-36.351 2.018,-47.366 4.238,-68.488 3.272,0.081 4.716,-0.358 8.406,-0.358 3.328,0 7.719,-1.032 7.321,-4.405 -3.343,-28.6 1.834,-60.843 -4.658,-93.078 12.549,0 28.447,-1.101 40.991,-1.101 0.691,2.275 -1.189,5.44 -0.395,7.71 -0.665,11.566 -0.764,18.41 -0.367,28.296 0.734,18.923 2.235,37.862 3.759,56.767 0.602,7.464 -1.527,3.868 9.253,3.609 2.908,-0.071 5.979,0.063 8.653,0 0.825,28.089 1.926,35.798 2.66,70.498 -31.204,0.002 -48.658,0.54 -79.861,0.55 z"
   id="btn-up"
   inkscape:label="#btn-up"
   inkscape:connector-curvature="0"
   style="fill:#ffffff" />
	<path
   d="m 299.505,442.996 c 2.53,0.273 5.06,0.525 7.588,0.827 0.857,0.104 1.554,-0.644 1.423,-1.479 -1.134,-7.131 -2.028,-14.278 -2.689,-21.438 -0.165,-3.745 -0.367,-7.49 -0.594,-11.237 1.405,0.104 2.811,0.202 4.219,0.291 1.05,0.065 1.75,-0.875 1.365,-1.862 -0.026,-0.066 -0.05,-0.132 -0.076,-0.2 0.042,-0.095 0.069,-0.196 0.088,-0.302 0.24,0.445 0.47,0.895 0.716,1.34 0.515,0.93 1.97,0.362 1.52,-0.633 -4.828,-10.676 -9.449,-21.422 -13.253,-32.473 -0.413,-1.196 -2.386,-0.888 -2.416,0.33 -0.259,10.735 -4.147,20.454 -8.115,30.181 -0.342,0.839 0.324,1.82 1.22,1.928 2.277,0.272 4.554,0.51 6.833,0.729 -0.723,10.895 -0.426,21.848 0.891,32.791 0.076,0.611 0.674,1.141 1.28,1.207 z"
   id="path76"
   inkscape:connector-curvature="0"
   style="fill:#303030" />
</g>
<g
   id="g84"
   inkscape:label="#btn-right">
	<path
   d="m 355.915,457.967 c 1.146,-43.235 2.248,-42.134 4.238,-68.488 3.272,0.081 4.716,-0.357 8.406,-0.357 3.327,0 7.719,-1.033 7.32,-4.405 -3.343,-28.601 1.834,-60.842 -4.658,-93.079 12.55,0 28.447,-1.1 40.991,-1.1 0.692,2.275 -1.189,5.441 -0.395,7.709 -0.665,11.565 -0.765,18.411 -0.367,28.296 0.732,18.924 2.234,37.862 3.758,56.767 0.603,7.464 -1.526,3.867 9.254,3.609 2.908,-0.07 5.979,0.062 8.652,0 -0.048,23.406 1.054,38.829 2.661,70.498 -31.202,0.003 -48.657,0.54 -79.86,0.55 z"
   id="btn-right"
   inkscape:label="#btn-right"
   inkscape:connector-curvature="0"
   style="fill:#ffffff" />
	<path
   d="m 364.331,412.36 c 10.943,1.317 21.896,1.614 32.791,0.891 0.22,2.28 0.456,4.557 0.729,6.834 0.107,0.896 1.088,1.562 1.928,1.22 9.727,-3.968 19.444,-7.856 30.181,-8.115 1.217,-0.028 1.525,-2.001 0.329,-2.415 -11.052,-3.804 -21.797,-8.426 -32.472,-13.253 -0.995,-0.45 -1.564,1.005 -0.632,1.52 0.444,0.246 0.893,0.477 1.338,0.716 -0.104,0.02 -0.207,0.048 -0.303,0.09 -0.066,-0.026 -0.133,-0.051 -0.199,-0.077 -0.986,-0.383 -1.927,0.315 -1.862,1.366 0.089,1.408 0.187,2.813 0.291,4.219 -3.746,-0.227 -7.491,-0.429 -11.236,-0.594 -7.161,-0.662 -14.308,-1.556 -21.438,-2.689 -0.837,-0.131 -1.584,0.565 -1.48,1.423 0.302,2.528 0.553,5.059 0.828,7.588 0.066,0.604 0.595,1.202 1.207,1.276 z"
   id="path82"
   inkscape:connector-curvature="0"
   style="fill:#303030" />
</g>
<g
   id="g90"
   inkscape:label="#btn-down">
	<path
   d="m 453.745,458.793 c 2.453,-38.555 3.554,-45.164 4.237,-68.488 3.274,0.081 4.717,-0.358 8.405,-0.358 3.329,0 7.72,-1.032 7.321,-4.405 -3.343,-28.6 1.836,-60.843 -4.658,-93.078 12.549,0 28.447,-1.101 40.992,-1.101 0.69,2.275 -1.188,5.44 -0.396,7.71 -0.664,11.566 -0.764,18.41 -0.368,28.296 0.735,18.923 2.236,37.862 3.759,56.767 0.602,7.464 -1.525,3.868 9.253,3.609 2.909,-0.071 5.979,0.063 8.653,0 3.462,24.785 0.157,40.205 2.661,70.498 -31.201,0.002 -48.656,0.54 -79.859,0.55 z"
   id="btn-down"
   inkscape:label="#btn-down"
   inkscape:connector-curvature="0"
   style="fill:#ffffff" />
	<path
   d="m 500.187,375.664 c -2.531,-0.277 -5.062,-0.527 -7.59,-0.829 -0.855,-0.104 -1.554,0.643 -1.423,1.48 1.135,7.128 2.028,14.276 2.69,21.436 0.164,3.746 0.366,7.491 0.594,11.237 -1.405,-0.103 -2.812,-0.202 -4.22,-0.291 -1.051,-0.065 -1.749,0.875 -1.364,1.862 0.024,0.066 0.049,0.133 0.075,0.2 -0.042,0.096 -0.069,0.197 -0.089,0.302 -0.24,-0.445 -0.47,-0.894 -0.717,-1.34 -0.515,-0.931 -1.97,-0.362 -1.52,0.633 4.827,10.676 9.449,21.423 13.253,32.474 0.414,1.195 2.388,0.888 2.416,-0.331 0.259,-10.735 4.146,-20.453 8.114,-30.18 0.342,-0.839 -0.324,-1.82 -1.219,-1.928 -2.278,-0.273 -4.554,-0.511 -6.834,-0.73 0.723,-10.895 0.426,-21.848 -0.892,-32.789 -0.071,-0.612 -0.67,-1.141 -1.274,-1.206 z"
   id="path88"
   inkscape:connector-curvature="0"
   style="fill:#303030" />
</g>
<g
   id="g106"
   inkscape:label="#btn-click">
	<path
   d="m 647.771,457.277 c 0.092,-35.938 0.092,-41.444 0.568,-68.547 1.115,0.061 2.257,0.13 3.475,0.199 4.493,0.259 8.026,-3.259 8.123,-6.722 0.529,-18.918 1.26,-37.845 1.564,-56.767 0.165,-9.885 2.055,-20.012 -1.229,-29.183 0.331,-2.266 0.623,-4.531 0.909,-6.803 5.213,0.052 10.422,0.109 15.65,0.177 -0.186,0.847 2.156,-0.568 1.983,0.283 12.836,-0.97 20.847,-1.064 34.444,0 0.034,-0.279 0.194,0.507 0.229,0.23 6.915,0.1 13.827,0.196 20.749,0.271 -7.74,26.294 -0.274,60.259 0.23,86.316 0.456,23.563 -4.72,54.697 2.408,79.413 z"
   id="btn-click"
   inkscape:label="#btn-click"
   inkscape:connector-curvature="0"
   style="fill:#ffffff" />
	<g
   id="g104">
		<path
   d="m 664.371,412.501 c -0.658,0 -1.151,-0.386 -1.479,-1.155 -0.287,-0.658 -0.557,-1.061 -0.802,-1.204 -0.217,-0.113 -0.751,-0.169 -1.605,-0.169 -1.489,0 -3.146,1.142 -4.965,3.424 -2.467,3.063 -3.702,5.967 -3.702,8.716 0,1.324 0.427,2.467 1.281,3.422 0.871,0.986 1.927,1.481 3.161,1.481 1.059,0 2.12,-0.271 3.192,-0.819 0.597,-0.307 1.511,-0.914 2.746,-1.819 0.585,-0.433 1.025,-0.646 1.325,-0.646 0.441,0 0.813,0.166 1.111,0.5 0.297,0.333 0.447,0.707 0.447,1.118 0,0.464 -0.198,0.868 -0.588,1.218 -2.715,2.407 -5.459,3.609 -8.234,3.609 -2.128,0 -3.928,-0.818 -5.396,-2.452 -1.421,-1.583 -2.13,-3.455 -2.13,-5.611 0,-3.487 1.459,-7.061 4.381,-10.722 2.437,-3.053 4.891,-4.579 7.37,-4.579 0.505,0 0.957,0.022 1.358,0.069 0.398,0.045 0.757,0.121 1.063,0.224 0.358,-0.525 0.826,-0.786 1.403,-0.786 0.711,0 1.155,0.468 1.341,1.402 0.165,0.832 0.248,1.854 0.248,3.068 0,0.423 -0.111,0.792 -0.34,1.111 -0.276,0.398 -0.673,0.6 -1.186,0.6 z"
   id="path94"
   inkscape:connector-curvature="0"
   style="fill:#303030" />
		<path
   d="m 680.397,429.172 c -1.162,0.548 -2.988,1.037 -5.477,1.465 -2.293,0.403 -4.165,0.604 -5.614,0.604 -1.037,0 -1.782,-0.16 -2.234,-0.479 -0.619,-0.432 -0.928,-1.222 -0.928,-2.374 l 0.309,-5.105 c 0.27,-4.708 0.403,-9.932 0.403,-15.67 0,-0.441 0.146,-0.816 0.438,-1.124 0.293,-0.31 0.655,-0.463 1.088,-0.463 0.441,0 0.809,0.153 1.103,0.463 0.293,0.308 0.44,0.683 0.44,1.124 0,5.81 -0.14,11.096 -0.417,15.854 l -0.202,2.347 c -0.081,0.853 -0.111,1.606 -0.092,2.266 2.685,0.03 6.077,-0.6 10.178,-1.896 0.176,-0.054 0.342,-0.08 0.495,-0.08 0.44,0 0.812,0.179 1.109,0.527 0.259,0.316 0.388,0.684 0.388,1.094 10e-4,0.657 -0.328,1.139 -0.987,1.447 z"
   id="path96"
   inkscape:connector-curvature="0"
   style="fill:#303030" />
		<path
   d="m 694.958,410.589 c -0.658,0 -1.486,-0.068 -2.483,-0.198 l -2.481,-0.326 c -0.238,2.993 -0.356,5.851 -0.356,8.574 0,0.721 0.019,1.611 0.063,2.668 0.04,1.062 0.062,1.951 0.062,2.669 0,0.968 -0.035,1.846 -0.109,2.638 l 4.859,-0.062 c 0.431,0 0.796,0.151 1.087,0.455 0.293,0.303 0.439,0.677 0.439,1.118 0,0.452 -0.146,0.831 -0.439,1.133 -0.291,0.303 -0.656,0.456 -1.087,0.456 -0.576,0 -1.44,0.012 -2.591,0.038 -1.152,0.025 -2.016,0.039 -2.592,0.039 -0.679,0 -1.693,0.095 -3.044,0.285 -1.354,0.19 -2.376,0.283 -3.063,0.283 -0.433,0 -0.794,-0.149 -1.086,-0.454 -0.295,-0.303 -0.44,-0.675 -0.44,-1.117 0,-0.441 0.146,-0.816 0.44,-1.126 0.292,-0.308 0.653,-0.463 1.086,-0.463 0.67,0 1.773,-0.108 3.318,-0.324 0.099,-0.831 0.15,-1.783 0.15,-2.854 0,-0.709 -0.032,-1.575 -0.099,-2.598 -0.067,-1.021 -0.101,-1.885 -0.101,-2.583 0,-2.377 0.144,-5.342 0.431,-8.9 l -2.003,0.063 -2.006,0.044 c -0.441,0 -0.812,-0.146 -1.111,-0.446 -0.297,-0.299 -0.447,-0.678 -0.447,-1.141 0,-0.957 0.482,-1.479 1.45,-1.574 0.833,-0.082 2.391,-0.121 4.675,-0.121 2.046,0 4.609,0.22 7.695,0.662 0.916,0.134 1.373,0.683 1.373,1.65 0,0.483 -0.176,0.868 -0.525,1.155 -0.309,0.24 -0.664,0.357 -1.065,0.357 z"
   id="path98"
   inkscape:connector-curvature="0"
   style="fill:#303030" />
		<path
   d="m 712.697,412.501 c -0.658,0 -1.152,-0.386 -1.479,-1.155 -0.29,-0.658 -0.558,-1.061 -0.805,-1.204 -0.216,-0.113 -0.751,-0.169 -1.603,-0.169 -1.49,0 -3.146,1.142 -4.967,3.424 -2.469,3.063 -3.703,5.967 -3.703,8.716 0,1.324 0.429,2.467 1.283,3.422 0.871,0.986 1.925,1.481 3.16,1.481 1.061,0 2.123,-0.271 3.193,-0.819 0.596,-0.307 1.511,-0.914 2.745,-1.819 0.585,-0.433 1.028,-0.646 1.326,-0.646 0.442,0 0.812,0.166 1.11,0.5 0.298,0.333 0.447,0.707 0.447,1.118 0,0.464 -0.195,0.868 -0.587,1.218 -2.716,2.407 -5.457,3.609 -8.235,3.609 -2.128,0 -3.928,-0.818 -5.396,-2.452 -1.418,-1.583 -2.129,-3.455 -2.129,-5.611 0,-3.487 1.461,-7.061 4.381,-10.722 2.437,-3.053 4.893,-4.579 7.371,-4.579 0.503,0 0.957,0.022 1.357,0.069 0.399,0.045 0.754,0.121 1.063,0.224 0.359,-0.525 0.827,-0.786 1.401,-0.786 0.712,0 1.159,0.468 1.345,1.402 0.164,0.832 0.246,1.854 0.246,3.068 0,0.423 -0.112,0.792 -0.339,1.111 -0.277,0.398 -0.671,0.6 -1.185,0.6 z"
   id="path100"
   inkscape:connector-curvature="0"
   style="fill:#303030" />
		<path
   d="m 730.695,430.438 c -1.563,0 -3.789,-1.371 -6.677,-4.116 l -4.612,-4.643 v 0.215 l -0.016,8.083 c 0,1.016 -0.447,1.526 -1.341,1.526 -0.586,0 -1.055,-0.257 -1.403,-0.771 -0.29,-0.422 -0.434,-0.88 -0.434,-1.374 0,-2.407 0.071,-6.002 0.219,-10.794 0.143,-4.792 0.215,-8.385 0.215,-10.782 0,-0.441 0.145,-0.816 0.439,-1.126 0.292,-0.307 0.656,-0.463 1.087,-0.463 0.441,0 0.81,0.156 1.103,0.463 0.294,0.31 0.439,0.685 0.439,1.126 0,0.999 -0.063,2.55 -0.185,4.658 -0.124,2.035 -0.181,3.596 -0.17,4.673 1.379,-1.305 2.935,-2.946 4.674,-4.919 l 4.427,-5.137 c 0.35,-0.401 0.738,-0.601 1.171,-0.601 0.411,0 0.776,0.153 1.094,0.462 0.319,0.309 0.478,0.683 0.478,1.127 0,0.678 -1.326,2.488 -3.978,5.428 -1.829,2.006 -3.723,3.969 -5.677,5.891 1.235,1.298 3.168,3.158 5.8,5.585 l 1.618,1.356 c 0.587,0.453 1.22,0.793 1.898,1.018 0.812,0.269 1.219,0.775 1.219,1.527 0,0.352 -0.107,0.685 -0.324,1.002 -0.267,0.39 -0.621,0.586 -1.064,0.586 z"
   id="path102"
   inkscape:connector-curvature="0"
   style="fill:#303030" />
	</g>
</g>
<g
   id="g122"
   inkscape:label="#btn-space">
	<path
   d="m 549.246,457.967 c 2.784,-37.729 1.684,-41.033 4.238,-68.488 3.271,0.081 4.716,-0.357 8.406,-0.357 3.326,0 7.718,-1.033 7.319,-4.405 -3.342,-28.601 1.835,-60.842 -4.657,-93.079 12.55,0 28.449,-1.1 40.99,-1.1 0.693,2.275 -1.188,5.441 -0.395,7.709 -0.665,11.565 -0.764,18.411 -0.368,28.296 0.733,18.924 2.235,37.862 3.761,56.767 0.6,7.464 6.925,3.195 9.254,3.609 2.844,0.505 5.976,0.062 8.651,0 2.691,23.406 3.793,36.624 2.661,70.498 -31.202,0.003 -48.657,0.54 -79.86,0.55 z"
   id="btn-space"
   inkscape:label="#btn-space"
   inkscape:connector-curvature="0"
   style="fill:#ffffff" />
	<g
   id="g120">
		<path
   d="m 552.221,424.019 c -0.008,-0.416 0.131,-0.757 0.425,-1.019 0.291,-0.263 0.651,-0.395 1.079,-0.395 0.487,0 0.915,0.277 1.281,0.834 0.507,0.755 0.958,1.265 1.355,1.533 0.844,0.556 2.07,0.833 3.679,0.833 1.537,0 2.968,-0.332 4.289,-0.996 1.687,-0.856 2.529,-2.04 2.529,-3.561 0,-1.25 -0.709,-2.237 -2.13,-2.963 -1.2,-0.625 -2.685,-0.962 -4.451,-1.013 -1.568,-0.06 -2.904,-0.401 -4.005,-1.027 -1.411,-0.804 -2.116,-1.955 -2.116,-3.453 0,-1.768 1.004,-3.382 3.008,-4.84 1.918,-1.382 3.897,-2.071 5.942,-2.071 0.963,0 2.05,0.163 3.261,0.492 1.608,0.427 2.414,0.972 2.414,1.638 0,0.874 -0.447,1.311 -1.34,1.311 -0.398,0 -1.094,-0.106 -2.087,-0.321 -0.993,-0.213 -1.762,-0.314 -2.307,-0.305 -1.55,0.021 -2.864,0.401 -3.947,1.147 -1.111,0.763 -1.669,1.692 -1.669,2.784 0,0.824 0.735,1.404 2.207,1.741 0.545,0.13 1.602,0.249 3.171,0.358 2.273,0.168 4.049,0.882 5.33,2.145 1.172,1.152 1.758,2.556 1.758,4.213 0,2.364 -1.093,4.251 -3.277,5.66 -1.895,1.22 -4.094,1.83 -6.596,1.83 -1.817,0 -3.479,-0.346 -4.988,-1.042 -1.848,-0.851 -2.786,-2.023 -2.815,-3.513 z"
   id="path110"
   inkscape:connector-curvature="0"
   style="fill:#303030" />
		<path
   d="m 574.687,420.182 c -0.277,0 -0.884,-0.064 -1.817,-0.193 -0.078,1.497 -0.119,4.124 -0.119,7.875 0,0.397 -0.129,0.733 -0.386,1.006 -0.258,0.272 -0.581,0.41 -0.969,0.41 -0.396,0 -0.724,-0.138 -0.982,-0.41 -0.258,-0.272 -0.387,-0.608 -0.387,-1.006 v -4.377 c 0,-1.459 0.089,-3.514 0.269,-6.165 0.199,-2.87 0.308,-4.923 0.327,-6.166 v -2.054 c 0,-0.982 0.058,-1.697 0.179,-2.144 0.229,-0.874 0.714,-1.252 1.459,-1.132 0.317,-0.099 0.77,-0.175 1.355,-0.223 0.585,-0.051 1.306,-0.076 2.158,-0.076 1.816,0 3.52,0.621 5.109,1.861 1.747,1.37 2.618,3.02 2.618,4.944 0,2.461 -0.931,4.423 -2.797,5.882 -1.669,1.312 -3.675,1.968 -6.017,1.968 z m 0.746,-11.825 c -0.438,0 -0.827,0.01 -1.17,0.029 -0.343,0.021 -0.634,0.052 -0.871,0.089 l -0.03,2.739 -0.312,5.928 1.637,0.194 c 1.669,0 3.073,-0.421 4.214,-1.268 1.251,-0.923 1.877,-2.167 1.877,-3.736 0,-1.111 -0.595,-2.07 -1.786,-2.875 -1.102,-0.733 -2.29,-1.1 -3.559,-1.1 z"
   id="path112"
   inkscape:connector-curvature="0"
   style="fill:#303030" />
		<path
   d="m 593.625,429.967 c -0.912,0 -1.707,-1.173 -2.384,-3.515 -0.256,-0.895 -0.579,-2.46 -0.967,-4.692 -1.011,0.139 -2.338,0.387 -3.976,0.745 l -3.961,0.818 c -0.497,1.301 -1.346,3.201 -2.547,5.704 -0.317,0.555 -0.75,0.834 -1.295,0.834 -0.397,0 -0.753,-0.145 -1.065,-0.433 -0.313,-0.289 -0.468,-0.646 -0.468,-1.071 0,-0.478 0.748,-2.29 2.248,-5.436 -0.17,-0.258 -0.254,-0.558 -0.254,-0.895 0,-0.804 0.485,-1.32 1.461,-1.549 1.131,-2.123 2.561,-4.566 4.289,-7.326 2.351,-3.762 3.815,-5.644 4.391,-5.644 0.783,0 1.32,0.545 1.61,1.638 l 0.937,5.005 2.219,10.349 0.849,2.353 c 0.287,0.803 0.433,1.341 0.433,1.608 0,0.426 -0.153,0.783 -0.461,1.073 -0.309,0.288 -0.663,0.434 -1.059,0.434 z m -5.256,-17.023 -4.26,6.865 c 1.202,-0.309 3.024,-0.681 5.467,-1.117 z"
   id="path114"
   inkscape:connector-curvature="0"
   style="fill:#303030" />
		<path
   d="m 609.282,412.511 c -0.637,0 -1.11,-0.373 -1.431,-1.116 -0.278,-0.636 -0.536,-1.021 -0.774,-1.162 -0.209,-0.107 -0.724,-0.165 -1.55,-0.165 -1.438,0 -3.036,1.104 -4.794,3.308 -2.383,2.958 -3.573,5.763 -3.573,8.414 0,1.28 0.411,2.383 1.236,3.306 0.843,0.952 1.859,1.428 3.053,1.428 1.022,0 2.049,-0.261 3.083,-0.789 0.574,-0.297 1.458,-0.883 2.649,-1.757 0.564,-0.416 0.992,-0.626 1.281,-0.626 0.427,0 0.784,0.163 1.071,0.485 0.289,0.323 0.432,0.684 0.432,1.079 0,0.447 -0.186,0.838 -0.565,1.175 -2.62,2.324 -5.271,3.486 -7.951,3.486 -2.057,0 -3.792,-0.789 -5.212,-2.368 -1.37,-1.527 -2.055,-3.337 -2.055,-5.419 0,-3.366 1.409,-6.816 4.228,-10.35 2.354,-2.949 4.727,-4.423 7.117,-4.423 0.489,0 0.924,0.022 1.313,0.068 0.386,0.043 0.729,0.114 1.027,0.214 0.348,-0.505 0.799,-0.758 1.355,-0.758 0.685,0 1.115,0.45 1.296,1.354 0.156,0.804 0.237,1.792 0.237,2.963 0,0.408 -0.11,0.765 -0.328,1.071 -0.267,0.388 -0.647,0.582 -1.145,0.582 z"
   id="path116"
   inkscape:connector-curvature="0"
   style="fill:#303030" />
		<path
   d="m 625.733,408.727 c -0.138,0 -0.292,-0.023 -0.462,-0.072 -1.677,-0.478 -3.295,-0.715 -4.854,-0.715 -0.815,0 -1.702,0.072 -2.666,0.223 -0.964,0.149 -2.001,0.376 -3.111,0.685 0.088,0.646 0.134,1.162 0.134,1.549 0,1.38 -0.085,3.276 -0.254,5.689 l 6.523,-0.626 c 1.915,-0.199 3.092,-0.297 3.529,-0.297 0.437,0 0.803,0.138 1.1,0.416 0.3,0.278 0.449,0.65 0.449,1.116 0,0.904 -0.457,1.41 -1.372,1.521 l -3.543,0.311 -6.88,0.626 c -0.039,0.704 -0.073,1.372 -0.098,2.003 -0.023,0.632 -0.035,1.22 -0.035,1.766 0,2.194 0.158,3.483 0.474,3.871 0.241,0.277 1.02,0.417 2.339,0.417 0.615,0 1.542,-0.017 2.778,-0.053 1.236,-0.034 2.166,-0.052 2.792,-0.052 0.198,0 0.492,-0.032 0.878,-0.097 0.388,-0.063 0.676,-0.097 0.864,-0.097 1.053,0 1.578,0.517 1.578,1.55 0,0.832 -0.421,1.334 -1.265,1.501 -0.935,0.189 -2.955,0.284 -6.061,0.284 -3.077,0 -5.054,-0.406 -5.927,-1.22 -0.954,-0.886 -1.432,-2.92 -1.432,-6.105 0,-0.637 0.016,-1.332 0.045,-2.086 0.031,-0.754 0.071,-1.568 0.12,-2.442 -0.108,-0.229 -0.165,-0.471 -0.165,-0.73 0,-0.337 0.096,-0.64 0.285,-0.907 0.197,-2.868 0.298,-4.987 0.298,-6.358 0,-0.367 -0.05,-0.905 -0.15,-1.615 -0.099,-0.71 -0.147,-1.249 -0.147,-1.615 0,-1.183 0.494,-1.773 1.488,-1.773 0.417,0 0.774,0.146 1.072,0.433 1.19,-0.317 2.314,-0.556 3.371,-0.715 1.06,-0.158 2.055,-0.239 2.987,-0.239 2.412,0 4.338,0.289 5.776,0.864 0.666,0.269 0.999,0.745 0.999,1.431 0,0.396 -0.129,0.75 -0.386,1.057 -0.285,0.334 -0.643,0.501 -1.071,0.501 z"
   id="path118"
   inkscape:connector-curvature="0"
   style="fill:#303030" />
	</g>
</g>
</svg>